<?xml version="1.0" standalone="no"?><!DOCTYPE svg PUBLIC "-//W3C//DTD SVG 1.1//EN" "http://www.w3.org/Graphics/SVG/1.1/DTD/svg11.dtd"><svg t="1721694934698" class="icon" viewBox="0 0 1024 1024" version="1.1" xmlns="http://www.w3.org/2000/svg" p-id="35293" xmlns:xlink="http://www.w3.org/1999/xlink" width="24" height="24"><path d="M1003.52 307.2c0-57.344-45.056-98.304-98.304-98.304H434.176c-4.096 0-12.288-4.096-16.384-8.192L372.736 135.168c-20.48-24.576-49.152-40.96-81.92-40.96H122.88C65.536 94.208 20.48 139.264 20.48 192.512v643.072c0 53.248 45.056 102.4 102.4 102.4h782.336c57.344 0 98.304-45.056 98.304-102.4V307.2z m-364.544 303.104h-86.016V696.32c0 24.576-16.384 40.96-40.96 40.96-20.48 0-40.96-16.384-40.96-40.96v-86.016H385.024c-24.576 0-40.96-16.384-40.96-40.96s16.384-40.96 40.96-40.96h86.016v-86.016c0-24.576 20.48-40.96 40.96-40.96 24.576 0 40.96 16.384 40.96 40.96v86.016h86.016c20.48 0 40.96 16.384 40.96 40.96s-16.384 40.96-40.96 40.96z" p-id="35294" fill="#ffffff"></path></svg>